<svg width="479" height="479" viewBox="0 0 479 479" fill="none" xmlns="http://www.w3.org/2000/svg">
<g filter="url(#filter0_bd_2_12)">
<rect x="19" y="19" width="441" height="441" rx="220.5" fill="#FFF7F7" fill-opacity="0.08" shape-rendering="crispEdges"/>
</g>
<path d="M265.398 159.845C265.398 158.187 264.569 156.94 262.905 156.104L232.378 143.02L219.294 112.494C218.376 110.774 217.485 110 216.177 110C214.519 110 213.272 110.829 212.437 112.494L199.352 143.02L168.826 156.104C167.168 156.933 166.332 158.18 166.332 159.845C166.332 161.509 167.161 162.749 168.826 163.585L199.352 176.67L212.437 207.196C213.265 208.854 214.512 209.69 216.177 209.69C217.842 209.69 219.082 208.861 219.917 207.196L233.002 176.67L263.528 163.585C264.775 162.756 265.398 161.509 265.398 159.845ZM121.057 307.523L161.879 325.848L179.376 366.671C180.485 368.89 182.15 370 184.376 370C186.603 370 188.268 368.89 189.377 366.671L206.874 325.848L247.696 308.352C249.916 307.242 251.026 305.577 251.026 303.351V302.515C250.471 300.85 249.361 299.46 247.696 298.35L206.874 280.853L189.377 240.031C188.268 237.811 186.603 236.701 184.376 236.701C182.15 236.701 180.485 237.811 179.376 240.031L161.879 280.853L121.057 298.35C118.837 299.46 117.727 301.124 117.727 303.351C117.727 305.577 118.837 306.961 121.057 307.516V307.523Z" fill="#FFFFF9"/>
<path d="M267.389 243.426L296.848 256.651L309.477 286.109C310.281 287.711 311.481 288.516 313.083 288.516C314.685 288.516 315.892 287.711 316.689 286.109L329.317 256.651L358.776 244.022C360.378 243.217 361.183 242.018 361.183 240.416V239.812C360.78 238.613 359.983 237.607 358.776 236.81L329.317 224.182L316.689 194.723C315.884 193.121 314.685 192.316 313.083 192.316C311.481 192.316 310.274 193.121 309.477 194.723L296.848 224.182L267.389 236.81C265.788 237.615 264.983 238.814 264.983 240.416C264.983 242.018 265.788 243.024 267.389 243.418V243.426Z" fill="#FFFFF9"/>
<defs>
<filter id="filter0_bd_2_12" x="0.874346" y="0.874346" width="477.251" height="477.251" filterUnits="userSpaceOnUse" color-interpolation-filters="sRGB">
<feFlood flood-opacity="0" result="BackgroundImageFix"/>
<feGaussianBlur in="BackgroundImageFix" stdDeviation="2.34073"/>
<feComposite in2="SourceAlpha" operator="in" result="effect1_backgroundBlur_2_12"/>
<feColorMatrix in="SourceAlpha" type="matrix" values="0 0 0 0 0 0 0 0 0 0 0 0 0 0 0 0 0 0 127 0" result="hardAlpha"/>
<feOffset/>
<feGaussianBlur stdDeviation="9.06283"/>
<feComposite in2="hardAlpha" operator="out"/>
<feColorMatrix type="matrix" values="0 0 0 0 0 0 0 0 0 0 0 0 0 0 0 0 0 0 0.15 0"/>
<feBlend mode="normal" in2="effect1_backgroundBlur_2_12" result="effect2_dropShadow_2_12"/>
<feBlend mode="normal" in="SourceGraphic" in2="effect2_dropShadow_2_12" result="shape"/>
</filter>
</defs>
</svg>
