<svg width="74" height="74" viewBox="0 0 74 74" fill="none" xmlns="http://www.w3.org/2000/svg">
<g filter="url(#filter0_bd_298_4494)">
<rect x="3" y="3" width="67.6" height="67.6" rx="33.8" fill="#FFF7F7" fill-opacity="0.05" shape-rendering="crispEdges"/>
</g>
<path d="M51.683 40.3261V48.1659H20.4751V24.8057H43.973C44.0779 24.6669 44.1953 24.5337 44.3251 24.4096L48.0164 20.8818H20.4751C18.376 20.8818 16.6426 22.6152 16.6426 24.8057V48.1659C16.6426 50.2649 18.376 51.9983 20.4751 51.9983H28.3227V54.006C28.3227 55.0092 29.1443 55.9222 30.239 55.9222H41.9191C43.0137 55.9222 43.8353 55.0092 43.8353 54.006V51.9983H51.683C53.782 51.9983 55.5154 50.2649 55.5154 48.1659V37.5917C55.4612 37.6459 55.4093 37.7012 55.354 37.7542C54.2627 38.8071 53.0248 39.6693 51.683 40.3261Z" fill="#FFFFF9"/>
<path d="M50.5962 20.8818L46.4907 24.8057H46.4896L45.5563 25.6972C45.185 26.0527 45.0744 26.4917 45.1534 26.8855C45.1613 26.925 45.1714 26.9634 45.1827 27.0018C45.2064 27.0785 45.2369 27.153 45.2741 27.2241C45.3306 27.3302 45.4017 27.4295 45.4863 27.5175C45.4863 27.5175 45.4874 27.5186 45.4886 27.5198C45.5179 27.5502 45.5495 27.5796 45.5822 27.6078C45.6477 27.6631 45.7188 27.7127 45.7955 27.7556C45.8339 27.7771 45.8734 27.7962 45.9151 27.8143C45.9975 27.8493 46.0844 27.8775 46.1758 27.8967C46.2672 27.9159 46.3632 27.926 46.4636 27.926H50.524C50.524 30.8353 48.1564 33.098 45.1116 33.098H32.5942C31.706 33.098 30.8833 33.4072 30.2378 33.9049C30.0539 34.0471 29.8835 34.2039 29.7311 34.3743C29.6544 34.459 29.5833 34.547 29.5156 34.6384C29.1116 35.1835 28.8735 35.8267 28.8735 36.4937C28.8735 37.2216 29.1116 37.9032 29.5156 38.4708C29.5833 38.5656 29.6555 38.6571 29.7311 38.7451C29.8835 38.9211 30.0539 39.0836 30.2378 39.2292C30.8833 39.7393 31.706 40.0496 32.5942 40.0496H45.1116C45.1207 40.0496 45.1297 40.0496 45.1387 40.0496C45.3069 40.0496 45.4739 40.0451 45.6398 40.0395C46.1487 40.0203 46.6487 39.9718 47.1385 39.8973C47.4894 39.8443 47.8359 39.7765 48.1767 39.6964C48.3572 39.6535 48.5355 39.6084 48.7127 39.5587C48.8718 39.5147 49.0287 39.4673 49.1856 39.4165C49.3673 39.3579 49.5478 39.2958 49.7261 39.2292C49.7735 39.2123 49.8198 39.1942 49.8661 39.1762C50.3412 38.9934 50.8027 38.7834 51.2462 38.5498C51.3941 38.472 51.5408 38.3907 51.6841 38.3072" fill="#FFFFF9"/>
<path d="M51.6841 38.3052C52.1242 38.0502 52.5463 37.7703 52.9492 37.4679C52.9717 37.451 52.9932 37.4352 53.0157 37.4182L53.9152 36.6644C54.5088 36.1171 55.0448 35.5156 55.5177 34.8689V34.8667C55.6802 34.6432 55.8359 34.4153 55.9837 34.1816C56.0356 34.0981 56.0876 34.0146 56.1383 33.93C56.1925 33.8386 56.2467 33.746 56.2986 33.6524C56.5593 33.1874 56.7884 32.7033 56.9847 32.2056C57.0637 32.0059 57.1359 31.805 57.2036 31.6007C57.277 31.3807 57.3447 31.1584 57.4045 30.9327C57.4564 30.7397 57.5027 30.5456 57.5445 30.3492C57.5828 30.1675 57.6167 29.9847 57.6472 29.7996C57.6652 29.6856 57.6833 29.5705 57.6979 29.4554L57.7984 27.9252H62.0077C63.1735 27.9252 63.8213 26.5631 62.9139 25.6975L59.0894 22.1032L55.1418 18.3937C54.915 18.1771 54.6385 18.0552 54.3451 18.0281C54.3034 18.0247 54.2605 18.0225 54.2187 18.0225C54.2165 18.0225 54.2153 18.0225 54.2131 18.0225C53.8745 18.0236 53.5202 18.1477 53.1986 18.3937L50.5951 20.881" fill="#FFFFF9"/>
<defs>
<filter id="filter0_bd_298_4494" x="0.221555" y="0.221555" width="73.1569" height="73.157" filterUnits="userSpaceOnUse" color-interpolation-filters="sRGB">
<feFlood flood-opacity="0" result="BackgroundImageFix"/>
<feGaussianBlur in="BackgroundImageFix" stdDeviation="0.358806"/>
<feComposite in2="SourceAlpha" operator="in" result="effect1_backgroundBlur_298_4494"/>
<feColorMatrix in="SourceAlpha" type="matrix" values="0 0 0 0 0 0 0 0 0 0 0 0 0 0 0 0 0 0 127 0" result="hardAlpha"/>
<feOffset/>
<feGaussianBlur stdDeviation="1.38922"/>
<feComposite in2="hardAlpha" operator="out"/>
<feColorMatrix type="matrix" values="0 0 0 0 0 0 0 0 0 0 0 0 0 0 0 0 0 0 0.15 0"/>
<feBlend mode="normal" in2="effect1_backgroundBlur_298_4494" result="effect2_dropShadow_298_4494"/>
<feBlend mode="normal" in="SourceGraphic" in2="effect2_dropShadow_298_4494" result="shape"/>
</filter>
</defs>
</svg>
