<svg width="479" height="479" viewBox="0 0 479 479" fill="none" xmlns="http://www.w3.org/2000/svg">
<g filter="url(#filter0_bd_2_8)">
<rect x="19" y="19" width="441" height="441" rx="220.5" fill="#FFF7F7" fill-opacity="0.08" shape-rendering="crispEdges"/>
</g>
<path d="M135.443 139.623C146.735 139.623 155.516 148.403 155.516 159.695C155.516 170.988 146.735 179.768 135.443 179.768C124.777 179.768 115.37 170.988 115.37 159.695C115.37 148.403 124.784 139.623 135.443 139.623ZM349.995 146.524C356.897 146.524 363.173 152.174 363.173 159.702C363.173 167.23 356.897 172.879 349.995 172.879H189.393C181.864 172.879 175.589 167.23 175.589 159.702C175.589 152.174 181.864 146.524 189.393 146.524H349.995ZM135.443 219.927C146.735 219.927 155.516 228.708 155.516 240C155.516 251.292 146.735 260.073 135.443 260.073C124.777 260.073 115.37 251.292 115.37 240C115.37 228.708 124.784 219.927 135.443 219.927ZM349.995 226.829C356.897 226.829 363.173 232.478 363.173 240.006C363.173 247.535 356.897 253.184 349.995 253.184H189.393C181.864 253.184 175.589 247.535 175.589 240.006C175.589 232.478 181.864 226.829 189.393 226.829H349.995ZM135.443 300.232C146.735 300.232 155.516 309.645 155.516 320.305C155.516 330.964 146.735 340.377 135.443 340.377C124.777 340.377 115.37 330.964 115.37 320.305C115.37 309.645 124.784 300.232 135.443 300.232ZM349.995 307.134C356.897 307.134 363.173 312.783 363.173 320.311C363.173 327.839 356.897 333.489 349.995 333.489H189.393C181.864 333.489 175.589 327.839 175.589 320.311C175.589 312.783 181.864 307.134 189.393 307.134H349.995ZM135.443 137.04C129.619 137.04 123.847 139.422 119.599 143.58C115.202 147.88 112.788 153.607 112.788 159.695C112.788 165.784 115.209 171.511 119.599 175.811C123.847 179.969 129.619 182.351 135.443 182.351C148.149 182.351 158.099 172.395 158.099 159.695C158.099 146.996 148.149 137.04 135.443 137.04ZM349.995 143.942H189.393C180.205 143.942 173.006 150.863 173.006 159.702C173.006 168.541 180.205 175.462 189.393 175.462H349.995C358.686 175.462 365.755 168.392 365.755 159.702C365.755 151.012 358.686 143.942 349.995 143.942ZM135.443 217.345C129.619 217.345 123.847 219.727 119.599 223.885C115.202 228.185 112.788 233.912 112.788 240C112.788 246.088 115.209 251.815 119.599 256.115C123.847 260.273 129.619 262.655 135.443 262.655C148.149 262.655 158.099 252.7 158.099 240C158.099 227.3 148.143 217.345 135.443 217.345ZM349.995 224.246H189.393C180.205 224.246 173.006 231.168 173.006 240.006C173.006 248.845 180.205 255.767 189.393 255.767H349.995C358.686 255.767 365.755 248.697 365.755 240.006C365.755 231.316 358.686 224.246 349.995 224.246ZM135.443 297.649C123.37 297.649 112.788 308.238 112.788 320.305C112.788 332.372 123.376 342.96 135.443 342.96C141.538 342.96 147.258 340.539 151.558 336.149C155.716 331.9 158.099 326.128 158.099 320.305C158.099 314.481 155.716 308.709 151.558 304.461C147.258 300.064 141.531 297.649 135.443 297.649ZM349.995 304.551H189.393C180.205 304.551 173.006 311.472 173.006 320.311C173.006 329.15 180.205 336.071 189.393 336.071H349.995C358.686 336.071 365.755 329.001 365.755 320.311C365.755 311.621 358.686 304.551 349.995 304.551Z" fill="#FFFFF9"/>
<path d="M135.443 341.669C124.06 341.669 114.078 331.687 114.078 320.305C114.078 308.922 124.06 298.94 135.443 298.94C146.825 298.94 156.807 308.528 156.807 320.305C156.807 332.081 147.219 341.669 135.443 341.669ZM189.392 334.767C180.928 334.767 174.297 328.414 174.297 320.298C174.297 312.182 180.928 305.829 189.392 305.829H349.995C357.968 305.829 364.463 312.318 364.463 320.298C364.463 328.278 357.975 334.767 349.995 334.767H189.392ZM135.443 261.364C123.66 261.364 114.078 251.776 114.078 240C114.078 228.224 123.666 218.636 135.443 218.636C147.219 218.636 156.807 228.023 156.807 240C156.807 251.977 147.419 261.364 135.443 261.364ZM189.392 254.462C180.928 254.462 174.297 248.109 174.297 239.994C174.297 231.878 180.928 225.525 189.392 225.525H349.995C357.968 225.525 364.463 232.013 364.463 239.994C364.463 247.974 357.975 254.462 349.995 254.462H189.392ZM135.443 181.06C123.66 181.06 114.078 171.472 114.078 159.695C114.078 147.919 123.666 138.331 135.443 138.331C147.219 138.331 156.807 147.719 156.807 159.695C156.807 171.672 147.419 181.06 135.443 181.06ZM189.392 174.158C180.928 174.158 174.297 167.805 174.297 159.689C174.297 151.573 180.928 145.22 189.392 145.22H349.995C357.968 145.22 364.463 151.709 364.463 159.689C364.463 167.669 357.975 174.158 349.995 174.158H189.392Z" fill="#FFFFF9"/>
<defs>
<filter id="filter0_bd_2_8" x="0.874346" y="0.874346" width="477.251" height="477.251" filterUnits="userSpaceOnUse" color-interpolation-filters="sRGB">
<feFlood flood-opacity="0" result="BackgroundImageFix"/>
<feGaussianBlur in="BackgroundImageFix" stdDeviation="2.34073"/>
<feComposite in2="SourceAlpha" operator="in" result="effect1_backgroundBlur_2_8"/>
<feColorMatrix in="SourceAlpha" type="matrix" values="0 0 0 0 0 0 0 0 0 0 0 0 0 0 0 0 0 0 127 0" result="hardAlpha"/>
<feOffset/>
<feGaussianBlur stdDeviation="9.06283"/>
<feComposite in2="hardAlpha" operator="out"/>
<feColorMatrix type="matrix" values="0 0 0 0 0 0 0 0 0 0 0 0 0 0 0 0 0 0 0.15 0"/>
<feBlend mode="normal" in2="effect1_backgroundBlur_2_8" result="effect2_dropShadow_2_8"/>
<feBlend mode="normal" in="SourceGraphic" in2="effect2_dropShadow_2_8" result="shape"/>
</filter>
</defs>
</svg>
