<svg width="479" height="479" viewBox="0 0 479 479" fill="none" xmlns="http://www.w3.org/2000/svg">
<g filter="url(#filter0_bd_2_11)">
<rect x="19" y="19" width="441" height="441" rx="220.5" fill="#FFF7F7" fill-opacity="0.08" shape-rendering="crispEdges"/>
</g>
<path d="M336.592 262.503V313.648H133.001V161.253H286.294C286.979 160.348 287.744 159.479 288.591 158.669L312.672 135.655H133.001C119.308 135.655 108 146.963 108 161.253V313.648C108 327.341 119.308 338.649 133.001 338.649H184.197V351.746C184.197 358.291 189.557 364.247 196.698 364.247H272.895C280.036 364.247 285.396 358.291 285.396 351.746V338.649H336.592C350.285 338.649 361.593 327.341 361.593 313.648V244.665C361.24 245.019 360.901 245.379 360.54 245.725C353.421 252.594 345.345 258.219 336.592 262.503Z" fill="#FFFFF9"/>
<path d="M329.502 135.655L302.719 161.253H302.711L296.623 167.069C294.201 169.388 293.48 172.252 293.995 174.821C294.046 175.079 294.113 175.329 294.186 175.58C294.341 176.08 294.54 176.566 294.783 177.03C295.151 177.722 295.614 178.37 296.167 178.944C296.167 178.944 296.174 178.952 296.181 178.959C296.373 179.158 296.579 179.349 296.792 179.533C297.219 179.894 297.683 180.218 298.184 180.498C298.434 180.638 298.692 180.763 298.964 180.88C299.502 181.109 300.068 181.293 300.665 181.418C301.261 181.543 301.887 181.609 302.542 181.609H329.031C329.031 200.589 313.585 215.35 293.722 215.35H212.063C206.269 215.35 200.902 217.367 196.691 220.613C195.491 221.541 194.379 222.564 193.385 223.676C192.884 224.228 192.421 224.802 191.979 225.399C189.343 228.955 187.79 233.151 187.79 237.502C187.79 242.25 189.343 246.697 191.979 250.4C192.421 251.019 192.892 251.615 193.385 252.189C194.379 253.338 195.491 254.398 196.691 255.348C200.902 258.675 206.269 260.7 212.063 260.7H293.722C293.781 260.7 293.84 260.7 293.899 260.7C294.996 260.7 296.086 260.67 297.168 260.634C300.488 260.508 303.75 260.192 306.945 259.706C309.234 259.36 311.494 258.918 313.718 258.395C314.896 258.116 316.059 257.821 317.215 257.497C318.253 257.21 319.276 256.901 320.299 256.57C321.485 256.187 322.663 255.782 323.826 255.348C324.135 255.237 324.437 255.119 324.739 255.002C327.838 253.809 330.849 252.44 333.743 250.916C334.707 250.408 335.664 249.878 336.599 249.333" fill="#FFFFF9"/>
<path d="M336.599 249.318C339.47 247.654 342.224 245.828 344.852 243.855C344.999 243.745 345.139 243.642 345.286 243.532L351.154 238.614C355.026 235.043 358.523 231.119 361.608 226.901V226.886C362.668 225.428 363.684 223.941 364.648 222.417C364.987 221.872 365.326 221.328 365.657 220.775C366.01 220.179 366.364 219.575 366.702 218.964C368.403 215.931 369.898 212.773 371.179 209.526C371.694 208.223 372.165 206.913 372.607 205.58C373.085 204.145 373.527 202.694 373.917 201.222C374.256 199.963 374.558 198.697 374.83 197.416C375.08 196.23 375.301 195.038 375.5 193.83C375.618 193.087 375.736 192.336 375.831 191.585L376.487 181.602H403.947C411.552 181.602 415.778 172.716 409.859 167.069L384.909 143.621L359.156 119.422C357.676 118.009 355.873 117.213 353.959 117.037C353.686 117.015 353.407 117 353.134 117C353.119 117 353.112 117 353.097 117C350.889 117.007 348.577 117.817 346.479 119.422L329.495 135.648" fill="#FFFFF9"/>
<defs>
<filter id="filter0_bd_2_11" x="0.874346" y="0.874346" width="477.251" height="477.251" filterUnits="userSpaceOnUse" color-interpolation-filters="sRGB">
<feFlood flood-opacity="0" result="BackgroundImageFix"/>
<feGaussianBlur in="BackgroundImageFix" stdDeviation="2.34073"/>
<feComposite in2="SourceAlpha" operator="in" result="effect1_backgroundBlur_2_11"/>
<feColorMatrix in="SourceAlpha" type="matrix" values="0 0 0 0 0 0 0 0 0 0 0 0 0 0 0 0 0 0 127 0" result="hardAlpha"/>
<feOffset/>
<feGaussianBlur stdDeviation="9.06283"/>
<feComposite in2="hardAlpha" operator="out"/>
<feColorMatrix type="matrix" values="0 0 0 0 0 0 0 0 0 0 0 0 0 0 0 0 0 0 0.15 0"/>
<feBlend mode="normal" in2="effect1_backgroundBlur_2_11" result="effect2_dropShadow_2_11"/>
<feBlend mode="normal" in="SourceGraphic" in2="effect2_dropShadow_2_11" result="shape"/>
</filter>
</defs>
</svg>
