<svg width="74" height="74" viewBox="0 0 74 74" fill="none" xmlns="http://www.w3.org/2000/svg">
<g filter="url(#filter0_bd_142_10169)">
<rect x="3" y="3" width="67.6" height="67.6" rx="33.8" fill="#FFF7F7" fill-opacity="0.05" shape-rendering="crispEdges"/>
</g>
<path d="M48.8842 38.2561C48.1655 38.2561 47.4469 38.8848 47.4469 39.6935V43.0169H44.1234C43.3147 43.0169 42.6861 43.7356 42.6861 44.4543C42.6861 45.2629 43.3147 45.8916 44.1234 45.8916H48.4344C49.5118 45.8916 50.3205 45.083 50.3205 44.0055V39.6946C50.3205 38.8859 49.6918 38.2572 48.8831 38.2572L48.8842 38.2561ZM26.4298 29.6342H29.7532C30.5619 29.6342 31.1906 29.0055 31.1906 28.1969C31.1906 27.3882 30.5619 26.7595 29.7532 26.7595H25.4423C24.3648 26.7595 23.5562 27.6582 23.5562 28.6456V32.9566C23.5562 33.7652 24.1849 34.3939 24.9935 34.3939C25.7122 34.3939 26.4309 33.7652 26.4309 32.9566V29.6331L26.4298 29.6342ZM52.2977 47.8666H21.5801V24.8734H52.2977V47.8666ZM52.2977 21.0112H21.5801C19.514 21.0112 17.8079 22.7174 17.8079 24.8734V47.8666C17.8079 49.9327 19.514 51.6388 21.5801 51.6388H29.3045V53.6149C29.3045 54.6024 30.1131 55.501 31.1906 55.501H42.6872C43.7646 55.501 44.5733 54.6024 44.5733 53.6149V51.6388H52.2977C54.3637 51.6388 56.0699 49.9327 56.0699 47.8666V24.8734C56.0699 22.7174 54.3637 21.0112 52.2977 21.0112Z" fill="#FFFFF9"/>
<defs>
<filter id="filter0_bd_142_10169" x="0.221555" y="0.221555" width="73.157" height="73.157" filterUnits="userSpaceOnUse" color-interpolation-filters="sRGB">
<feFlood flood-opacity="0" result="BackgroundImageFix"/>
<feGaussianBlur in="BackgroundImageFix" stdDeviation="0.358806"/>
<feComposite in2="SourceAlpha" operator="in" result="effect1_backgroundBlur_142_10169"/>
<feColorMatrix in="SourceAlpha" type="matrix" values="0 0 0 0 0 0 0 0 0 0 0 0 0 0 0 0 0 0 127 0" result="hardAlpha"/>
<feOffset/>
<feGaussianBlur stdDeviation="1.38922"/>
<feComposite in2="hardAlpha" operator="out"/>
<feColorMatrix type="matrix" values="0 0 0 0 0 0 0 0 0 0 0 0 0 0 0 0 0 0 0.15 0"/>
<feBlend mode="normal" in2="effect1_backgroundBlur_142_10169" result="effect2_dropShadow_142_10169"/>
<feBlend mode="normal" in="SourceGraphic" in2="effect2_dropShadow_142_10169" result="shape"/>
</filter>
</defs>
</svg>
