<svg width="74" height="74" viewBox="0 0 74 74" fill="none" xmlns="http://www.w3.org/2000/svg">
<g filter="url(#filter0_bd_142_10133)">
<rect x="3" y="3" width="67.6" height="67.6" rx="33.8" fill="#FFF7F7" fill-opacity="0.05" shape-rendering="crispEdges"/>
</g>
<path d="M20.8493 21.4901C22.5802 21.4901 23.9262 22.8361 23.9262 24.567C23.9262 26.298 22.5802 27.644 20.8493 27.644C19.2143 27.644 17.7723 26.298 17.7723 24.567C17.7723 22.8361 19.2153 21.4901 20.8493 21.4901ZM53.7375 22.5481C54.7955 22.5481 55.7575 23.4141 55.7575 24.568C55.7575 25.722 54.7955 26.588 53.7375 26.588H29.1191C27.9651 26.588 27.0031 25.722 27.0031 24.568C27.0031 23.4141 27.9651 22.5481 29.1191 22.5481H53.7375ZM20.8493 33.7998C22.5802 33.7998 23.9262 35.1458 23.9262 36.8768C23.9262 38.6077 22.5802 39.9537 20.8493 39.9537C19.2143 39.9537 17.7723 38.6077 17.7723 36.8768C17.7723 35.1458 19.2153 33.7998 20.8493 33.7998ZM53.7375 34.8578C54.7955 34.8578 55.7575 35.7238 55.7575 36.8778C55.7575 38.0317 54.7955 38.8977 53.7375 38.8977H29.1191C27.9651 38.8977 27.0031 38.0317 27.0031 36.8778C27.0031 35.7238 27.9651 34.8578 29.1191 34.8578H53.7375ZM20.8493 46.1096C22.5802 46.1096 23.9262 47.5525 23.9262 49.1865C23.9262 50.8205 22.5802 52.2634 20.8493 52.2634C19.2143 52.2634 17.7723 50.8205 17.7723 49.1865C17.7723 47.5525 19.2153 46.1096 20.8493 46.1096ZM53.7375 47.1675C54.7955 47.1675 55.7575 48.0335 55.7575 49.1875C55.7575 50.3415 54.7955 51.2074 53.7375 51.2074H29.1191C27.9651 51.2074 27.0031 50.3415 27.0031 49.1875C27.0031 48.0335 27.9651 47.1675 29.1191 47.1675H53.7375ZM20.8493 21.0942C19.9566 21.0942 19.0718 21.4594 18.4206 22.0968C17.7466 22.7559 17.3765 23.6338 17.3765 24.567C17.3765 25.5003 17.7476 26.3782 18.4206 27.0373C19.0718 27.6747 19.9566 28.0399 20.8493 28.0399C22.797 28.0399 24.3221 26.5138 24.3221 24.567C24.3221 22.6203 22.797 21.0942 20.8493 21.0942ZM53.7375 22.1522H29.1191C27.7108 22.1522 26.6073 23.2132 26.6073 24.568C26.6073 25.9229 27.7108 26.9839 29.1191 26.9839H53.7375C55.0697 26.9839 56.1534 25.9002 56.1534 24.568C56.1534 23.2359 55.0697 22.1522 53.7375 22.1522ZM20.8493 33.404C19.9566 33.404 19.0718 33.7692 18.4206 34.4065C17.7466 35.0656 17.3765 35.9435 17.3765 36.8768C17.3765 37.81 17.7476 38.6879 18.4206 39.347C19.0718 39.9844 19.9566 40.3496 20.8493 40.3496C22.797 40.3496 24.3221 38.8235 24.3221 36.8768C24.3221 34.9301 22.796 33.404 20.8493 33.404ZM53.7375 34.4619H29.1191C27.7108 34.4619 26.6073 35.5229 26.6073 36.8778C26.6073 38.2326 27.7108 39.2936 29.1191 39.2936H53.7375C55.0697 39.2936 56.1534 38.2099 56.1534 36.8778C56.1534 35.5456 55.0697 34.4619 53.7375 34.4619ZM20.8493 45.7137C18.9986 45.7137 17.3765 47.3368 17.3765 49.1865C17.3765 51.0362 18.9995 52.6593 20.8493 52.6593C21.7835 52.6593 22.6604 52.2882 23.3195 51.6152C23.9569 50.964 24.3221 50.0792 24.3221 49.1865C24.3221 48.2938 23.9569 47.409 23.3195 46.7578C22.6604 46.0838 21.7825 45.7137 20.8493 45.7137ZM53.7375 46.7717H29.1191C27.7108 46.7717 26.6073 47.8326 26.6073 49.1875C26.6073 50.5424 27.7108 51.6033 29.1191 51.6033H53.7375C55.0697 51.6033 56.1534 50.5196 56.1534 49.1875C56.1534 47.8554 55.0697 46.7717 53.7375 46.7717Z" fill="#FFFFF9"/>
<path d="M20.8492 52.4612C19.1044 52.4612 17.5743 50.9311 17.5743 49.1863C17.5743 47.4415 19.1044 45.9114 20.8492 45.9114C22.594 45.9114 24.1241 47.3811 24.1241 49.1863C24.1241 50.9915 22.6544 52.4612 20.8492 52.4612ZM29.119 51.4032C27.8216 51.4032 26.8051 50.4293 26.8051 49.1853C26.8051 47.9413 27.8216 46.9674 29.119 46.9674H53.7375C54.9597 46.9674 55.9554 47.9621 55.9554 49.1853C55.9554 50.4086 54.9607 51.4032 53.7375 51.4032H29.119ZM20.8492 40.1515C19.043 40.1515 17.5743 38.6818 17.5743 36.8766C17.5743 35.0714 19.044 33.6017 20.8492 33.6017C22.6544 33.6017 24.1241 35.0407 24.1241 36.8766C24.1241 38.7125 22.6851 40.1515 20.8492 40.1515ZM29.119 39.0935C27.8216 39.0935 26.8051 38.1196 26.8051 36.8756C26.8051 35.6316 27.8216 34.6577 29.119 34.6577H53.7375C54.9597 34.6577 55.9554 35.6523 55.9554 36.8756C55.9554 38.0988 54.9607 39.0935 53.7375 39.0935H29.119ZM20.8492 27.8417C19.043 27.8417 17.5743 26.3721 17.5743 24.5669C17.5743 22.7617 19.044 21.292 20.8492 21.292C22.6544 21.292 24.1241 22.731 24.1241 24.5669C24.1241 26.4027 22.6851 27.8417 20.8492 27.8417ZM29.119 26.7838C27.8216 26.7838 26.8051 25.8099 26.8051 24.5659C26.8051 23.3218 27.8216 22.348 29.119 22.348H53.7375C54.9597 22.348 55.9554 23.3426 55.9554 24.5659C55.9554 25.7891 54.9607 26.7838 53.7375 26.7838H29.119Z" fill="#FFFFF9"/>
<defs>
<filter id="filter0_bd_142_10133" x="0.221555" y="0.221555" width="73.1569" height="73.157" filterUnits="userSpaceOnUse" color-interpolation-filters="sRGB">
<feFlood flood-opacity="0" result="BackgroundImageFix"/>
<feGaussianBlur in="BackgroundImageFix" stdDeviation="0.358806"/>
<feComposite in2="SourceAlpha" operator="in" result="effect1_backgroundBlur_142_10133"/>
<feColorMatrix in="SourceAlpha" type="matrix" values="0 0 0 0 0 0 0 0 0 0 0 0 0 0 0 0 0 0 127 0" result="hardAlpha"/>
<feOffset/>
<feGaussianBlur stdDeviation="1.38922"/>
<feComposite in2="hardAlpha" operator="out"/>
<feColorMatrix type="matrix" values="0 0 0 0 0 0 0 0 0 0 0 0 0 0 0 0 0 0 0.15 0"/>
<feBlend mode="normal" in2="effect1_backgroundBlur_142_10133" result="effect2_dropShadow_142_10133"/>
<feBlend mode="normal" in="SourceGraphic" in2="effect2_dropShadow_142_10133" result="shape"/>
</filter>
</defs>
</svg>
