<svg width="479" height="479" viewBox="0 0 479 479" fill="none" xmlns="http://www.w3.org/2000/svg">
<g filter="url(#filter0_bd_2_9)">
<rect x="19" y="19" width="441" height="441" rx="220.5" fill="#FFF7F7" fill-opacity="0.08" shape-rendering="crispEdges"/>
</g>
<path d="M252.216 329.135C238.293 329.135 226.791 317.704 226.791 303.867V284.616C226.791 259.347 206.214 239.5 181.395 239.5C156.577 239.5 136 259.354 136 284.616V329.135C136 336.352 142.055 342.369 149.316 342.369C155.977 342.369 162.025 336.352 162.025 329.135V284.616C162.025 273.787 170.5 265.365 181.395 265.365C192.291 265.365 200.766 273.787 200.766 284.616V303.867C200.766 332.144 223.77 355 252.216 355C280.661 355 304.273 332.137 304.273 303.867V278.002H278.248V303.867C278.248 317.704 266.745 329.135 252.223 329.135H252.216ZM239.507 188.367V213.635C239.507 228.075 251.009 239.5 265.532 239.5V252.131C265.532 259.347 270.98 265.365 278.241 265.365H304.266C310.927 265.365 316.975 259.347 316.975 252.131V239.5C330.898 239.5 343 228.069 343 213.635V188.367C343 181.15 336.945 175.133 329.684 175.133H252.202C245.541 175.133 239.493 181.15 239.493 188.367H239.507ZM304.273 136.631V162.495H329.698V136.631C329.698 130.01 324.25 124 316.989 124C309.727 124 304.28 130.017 304.28 136.631H304.273ZM265.532 124C258.27 124 252.216 130.017 252.216 136.631V162.495H278.241V136.631C278.241 130.01 272.186 124 265.532 124Z" fill="#FFFFF9"/>
<defs>
<filter id="filter0_bd_2_9" x="0.874346" y="0.874346" width="477.251" height="477.251" filterUnits="userSpaceOnUse" color-interpolation-filters="sRGB">
<feFlood flood-opacity="0" result="BackgroundImageFix"/>
<feGaussianBlur in="BackgroundImageFix" stdDeviation="2.34073"/>
<feComposite in2="SourceAlpha" operator="in" result="effect1_backgroundBlur_2_9"/>
<feColorMatrix in="SourceAlpha" type="matrix" values="0 0 0 0 0 0 0 0 0 0 0 0 0 0 0 0 0 0 127 0" result="hardAlpha"/>
<feOffset/>
<feGaussianBlur stdDeviation="9.06283"/>
<feComposite in2="hardAlpha" operator="out"/>
<feColorMatrix type="matrix" values="0 0 0 0 0 0 0 0 0 0 0 0 0 0 0 0 0 0 0.15 0"/>
<feBlend mode="normal" in2="effect1_backgroundBlur_2_9" result="effect2_dropShadow_2_9"/>
<feBlend mode="normal" in="SourceGraphic" in2="effect2_dropShadow_2_9" result="shape"/>
</filter>
</defs>
</svg>
