<svg width="74" height="74" viewBox="0 0 74 74" fill="none" xmlns="http://www.w3.org/2000/svg">
<g filter="url(#filter0_bd_298_4502)">
<rect x="3" y="3" width="67.6" height="67.6" rx="33.8" fill="#FFF7F7" fill-opacity="0.05" shape-rendering="crispEdges"/>
</g>
<path d="M40.7699 24.5898C40.7699 24.3357 40.6429 24.1446 40.3877 24.0165L35.7084 22.0108L33.7027 17.3315C33.562 17.0679 33.4254 16.9492 33.2249 16.9492C32.9707 16.9492 32.7796 17.0763 32.6515 17.3315L30.6458 22.0108L25.9665 24.0165C25.7124 24.1435 25.5843 24.3347 25.5843 24.5898C25.5843 24.845 25.7113 25.0351 25.9665 25.1632L30.6458 27.1689L32.6515 31.8482C32.7786 32.1023 32.9697 32.2304 33.2249 32.2304C33.4801 32.2304 33.6701 32.1034 33.7982 31.8482L35.804 27.1689L40.4832 25.1632C40.6744 25.0361 40.7699 24.845 40.7699 24.5898ZM18.6441 47.2271L24.9017 50.0361L27.5837 56.2937C27.7538 56.634 28.009 56.8041 28.3502 56.8041C28.6915 56.8041 28.9467 56.634 29.1168 56.2937L31.7988 50.0361L38.0564 47.3541C38.3967 47.184 38.5668 46.9289 38.5668 46.5876V46.4594C38.4817 46.2043 38.3116 45.9911 38.0564 45.821L31.7988 43.139L29.1168 36.8814C28.9467 36.5411 28.6915 36.371 28.3502 36.371C28.009 36.371 27.7538 36.5411 27.5837 36.8814L24.9017 43.139L18.6441 45.821C18.3038 45.9911 18.1337 46.2463 18.1337 46.5876C18.1337 46.9289 18.3038 47.141 18.6441 47.226V47.2271Z" fill="#FFFFF9"/>
<path d="M41.0751 37.4019L45.5908 39.4291L47.5266 43.9448C47.6499 44.1903 47.8338 44.3137 48.0793 44.3137C48.3249 44.3137 48.5099 44.1903 48.6321 43.9448L50.5679 39.4291L55.0836 37.4933C55.3291 37.3699 55.4525 37.1861 55.4525 36.9405V36.848C55.3908 36.6642 55.2686 36.51 55.0836 36.3878L50.5679 34.452L48.6321 29.9363C48.5087 29.6907 48.3249 29.5674 48.0793 29.5674C47.8338 29.5674 47.6487 29.6907 47.5266 29.9363L45.5908 34.452L41.0751 36.3878C40.8295 36.5111 40.7062 36.695 40.7062 36.9405C40.7062 37.1861 40.8295 37.3403 41.0751 37.4008V37.4019Z" fill="#FFFFF9"/>
<defs>
<filter id="filter0_bd_298_4502" x="0.221555" y="0.221555" width="73.1569" height="73.157" filterUnits="userSpaceOnUse" color-interpolation-filters="sRGB">
<feFlood flood-opacity="0" result="BackgroundImageFix"/>
<feGaussianBlur in="BackgroundImageFix" stdDeviation="0.358806"/>
<feComposite in2="SourceAlpha" operator="in" result="effect1_backgroundBlur_298_4502"/>
<feColorMatrix in="SourceAlpha" type="matrix" values="0 0 0 0 0 0 0 0 0 0 0 0 0 0 0 0 0 0 127 0" result="hardAlpha"/>
<feOffset/>
<feGaussianBlur stdDeviation="1.38922"/>
<feComposite in2="hardAlpha" operator="out"/>
<feColorMatrix type="matrix" values="0 0 0 0 0 0 0 0 0 0 0 0 0 0 0 0 0 0 0.15 0"/>
<feBlend mode="normal" in2="effect1_backgroundBlur_298_4502" result="effect2_dropShadow_298_4502"/>
<feBlend mode="normal" in="SourceGraphic" in2="effect2_dropShadow_298_4502" result="shape"/>
</filter>
</defs>
</svg>
