<svg width="479" height="479" viewBox="0 0 479 479" fill="none" xmlns="http://www.w3.org/2000/svg">
<g filter="url(#filter0_bd_2_10)">
<rect x="19" y="19" width="441" height="441" rx="220.5" fill="#FFF7F7" fill-opacity="0.08" shape-rendering="crispEdges"/>
</g>
<path d="M239.755 278.682C218.906 278.682 201.619 261.148 201.619 240C201.619 218.852 218.906 201.318 239.755 201.318C260.603 201.318 277.89 218.852 277.89 240C277.89 261.148 260.603 278.682 239.755 278.682ZM331.155 240C331.155 237.087 331.155 234.166 330.579 231.254L353.576 213.761C358.751 210.264 359.903 203.262 357.023 198.021L334.027 157.787C330.579 151.953 324.252 150.209 318.509 152.538L292.066 163.612C287.467 160.7 282.867 157.779 277.692 155.45L274.245 126.299C273.669 120.465 268.494 115.8 262.175 115.8H216.191C209.864 115.8 204.697 120.465 204.121 126.299L200.673 155.45C195.498 157.779 190.899 160.7 186.3 163.612L159.856 152.538C154.105 150.209 147.786 151.953 144.339 157.787L121.342 198.021C118.471 203.271 119.615 210.264 124.79 214.346L147.786 231.838C147.21 234.166 147.21 237.087 147.21 240C147.21 242.913 147.21 245.834 147.786 248.746L124.79 266.239C119.615 269.736 118.463 276.738 121.342 281.979L144.339 322.213C147.786 328.047 154.113 329.791 159.856 327.462L186.3 316.388C190.899 319.3 195.498 322.221 200.673 324.55L204.121 353.701C204.697 359.535 209.872 364.2 216.191 364.2H262.175C267.926 364.2 273.669 359.535 274.245 353.701L277.692 324.55C282.867 322.221 287.467 319.3 292.066 316.388L318.509 327.462C324.261 329.791 330.579 328.047 333.459 322.213L356.455 281.979C359.903 276.729 358.183 269.736 353.584 266.239L330.588 248.746C331.164 245.834 331.164 242.913 331.164 240H331.155Z" fill="#FFFFF9"/>
<defs>
<filter id="filter0_bd_2_10" x="0.874346" y="0.874346" width="477.251" height="477.251" filterUnits="userSpaceOnUse" color-interpolation-filters="sRGB">
<feFlood flood-opacity="0" result="BackgroundImageFix"/>
<feGaussianBlur in="BackgroundImageFix" stdDeviation="2.34073"/>
<feComposite in2="SourceAlpha" operator="in" result="effect1_backgroundBlur_2_10"/>
<feColorMatrix in="SourceAlpha" type="matrix" values="0 0 0 0 0 0 0 0 0 0 0 0 0 0 0 0 0 0 127 0" result="hardAlpha"/>
<feOffset/>
<feGaussianBlur stdDeviation="9.06283"/>
<feComposite in2="hardAlpha" operator="out"/>
<feColorMatrix type="matrix" values="0 0 0 0 0 0 0 0 0 0 0 0 0 0 0 0 0 0 0.15 0"/>
<feBlend mode="normal" in2="effect1_backgroundBlur_2_10" result="effect2_dropShadow_2_10"/>
<feBlend mode="normal" in="SourceGraphic" in2="effect2_dropShadow_2_10" result="shape"/>
</filter>
</defs>
</svg>
